<svg xmlns="http://www.w3.org/2000/svg" viewBox="0 0 512 512">
  <rect width="512" height="512" rx="96" fill="#295b2d"/>
  <circle cx="256" cy="256" r="176" fill="#f4efe3"/>
  <path d="M171 322c35-77 69-131 85-143 18 22 49 76 85 143-33-25-57-37-85-37s-53 12-85 37Z" fill="#d99c2b"/>
  <path d="M256 125c-10 62-11 115 0 161 11-46 10-99 0-161Z" fill="#295b2d"/>
  <path d="M195 174c19 39 40 71 61 96-11-37-31-69-61-96Z" fill="#295b2d"/>
  <path d="M317 174c-30 27-50 59-61 96 21-25 42-57 61-96Z" fill="#295b2d"/>
</svg>
